<svg width="60" height="36" viewBox="0 0 60 36" fill="none" xmlns="http://www.w3.org/2000/svg">
<g filter="url(#filter0_i_115_1603)">
<rect y="1" width="60" height="30" rx="15" fill="url(#paint0_linear_115_1603)"/>
</g>
<path fill-rule="evenodd" clip-rule="evenodd" d="M13.9389 13.1198C13.3829 13.6675 12.6514 14 11.85 14C10.9043 14 10.056 13.5369 9.47856 12.8038C9.24295 12.9295 8.97889 13 8.70002 13C7.70591 13 6.90002 12.1046 6.90002 11C6.90002 9.89543 7.70591 9 8.70002 9C8.79947 9 8.89702 9.00896 8.99208 9.02619C9.49274 7.82962 10.5842 7 11.85 7C12.8772 7 13.7896 7.5463 14.3646 8.39167C14.5209 8.35347 14.6834 8.33333 14.85 8.33333C16.0927 8.33333 17.1 9.45262 17.1 10.8333C17.1 12.214 16.0927 13.3333 14.85 13.3333C14.5257 13.3333 14.2174 13.2571 13.9389 13.1198Z" fill="url(#paint1_linear_115_1603)"/>
<path fill-rule="evenodd" clip-rule="evenodd" d="M29.5264 8.23992C29.2321 8.52984 28.8448 8.70588 28.4206 8.70588C27.9199 8.70588 27.4708 8.46074 27.1651 8.07258C27.0404 8.13917 26.9006 8.17647 26.7529 8.17647C26.2266 8.17647 25.8 7.70242 25.8 7.11765C25.8 6.53288 26.2266 6.05882 26.7529 6.05882C26.8056 6.05882 26.8572 6.06357 26.9075 6.0727C27.1726 5.43921 27.7504 5 28.4206 5C28.9644 5 29.4474 5.28922 29.7518 5.73677C29.8346 5.71655 29.9206 5.70588 30.0088 5.70588C30.6667 5.70588 31.2 6.29845 31.2 7.02941C31.2 7.76038 30.6667 8.35294 30.0088 8.35294C29.8371 8.35294 29.6739 8.31258 29.5264 8.23992Z" fill="url(#paint2_linear_115_1603)"/>
<path fill-rule="evenodd" clip-rule="evenodd" d="M28.2967 16.0399C27.8388 16.4909 27.2364 16.7647 26.5765 16.7647C25.7976 16.7647 25.099 16.3834 24.6235 15.7796C24.4295 15.8831 24.212 15.9412 23.9824 15.9412C23.1637 15.9412 22.5 15.2038 22.5 14.2941C22.5 13.3845 23.1637 12.6471 23.9824 12.6471C24.0642 12.6471 24.1446 12.6544 24.2229 12.6686C24.6352 11.6832 25.534 11 26.5765 11C27.4224 11 28.1737 11.4499 28.6473 12.1461C28.776 12.1146 28.9098 12.0981 29.0471 12.0981C30.0704 12.0981 30.9 13.0198 30.9 14.1569C30.9 15.2939 30.0704 16.2157 29.0471 16.2157C28.78 16.2157 28.5261 16.1529 28.2967 16.0399Z" fill="url(#paint3_linear_115_1603)"/>
<g filter="url(#filter1_d_115_1603)">
<ellipse cx="44.7" cy="16.6667" rx="10.5" ry="11.6667" fill="url(#paint4_linear_115_1603)"/>
<ellipse cx="44.7" cy="16.6667" rx="8.7" ry="9.66667" fill="url(#paint5_linear_115_1603)"/>
<ellipse cx="44.7" cy="16.6667" rx="10.5" ry="11.6667" fill="#FF9255"/>
<ellipse cx="44.7" cy="16.6667" rx="8.7" ry="9.66667" fill="url(#paint6_linear_115_1603)"/>
<mask id="mask0_115_1603" style="mask-type:alpha" maskUnits="userSpaceOnUse" x="34" y="5" width="22" height="24">
<ellipse cx="44.7" cy="16.6667" rx="10.5" ry="11.6667" fill="url(#paint7_linear_115_1603)"/>
</mask>
<g mask="url(#mask0_115_1603)">
<path d="M46.9499 17.6752C52.5899 10.3419 58.1999 10.1752 60.2999 11.0086L63.7499 14.6753L60.7499 30.5086L38.9999 38.0086L26.8499 31.8419L25.4999 17.1753C30.2999 20.3975 41.3099 25.0086 46.9499 17.6752Z" fill="url(#paint8_linear_115_1603)"/>
<path d="M43.8 16.6609C31.4409 8.33331 27.8001 10.865 25.9284 12.2119L23.3284 16.6609L29.5205 31.3056L52.2393 33.0558L62.7902 23.9539L61.073 9.33467C57.0672 13.6955 51.6689 21.963 43.8 16.6609Z" fill="url(#paint9_linear_115_1603)"/>
</g>
</g>
<defs>
<filter id="filter0_i_115_1603" x="0" y="1" width="60" height="36" filterUnits="userSpaceOnUse" color-interpolation-filters="sRGB">
<feFlood flood-opacity="0" result="BackgroundImageFix"/>
<feBlend mode="normal" in="SourceGraphic" in2="BackgroundImageFix" result="shape"/>
<feColorMatrix in="SourceAlpha" type="matrix" values="0 0 0 0 0 0 0 0 0 0 0 0 0 0 0 0 0 0 127 0" result="hardAlpha"/>
<feMorphology radius="3" operator="erode" in="SourceAlpha" result="effect1_innerShadow_115_1603"/>
<feOffset dy="6"/>
<feGaussianBlur stdDeviation="4"/>
<feComposite in2="hardAlpha" operator="arithmetic" k2="-1" k3="1"/>
<feColorMatrix type="matrix" values="0 0 0 0 0 0 0 0 0 0 0 0 0 0 0 0 0 0 0.25 0"/>
<feBlend mode="normal" in2="shape" result="effect1_innerShadow_115_1603"/>
</filter>
<filter id="filter1_d_115_1603" x="26.2" y="0" width="33" height="35.3334" filterUnits="userSpaceOnUse" color-interpolation-filters="sRGB">
<feFlood flood-opacity="0" result="BackgroundImageFix"/>
<feColorMatrix in="SourceAlpha" type="matrix" values="0 0 0 0 0 0 0 0 0 0 0 0 0 0 0 0 0 0 127 0" result="hardAlpha"/>
<feOffset dx="-2" dy="1"/>
<feGaussianBlur stdDeviation="3"/>
<feColorMatrix type="matrix" values="0 0 0 0 0 0 0 0 0 0 0 0 0 0 0 0 0 0 0.25 0"/>
<feBlend mode="normal" in2="BackgroundImageFix" result="effect1_dropShadow_115_1603"/>
<feBlend mode="normal" in="SourceGraphic" in2="effect1_dropShadow_115_1603" result="shape"/>
</filter>
<linearGradient id="paint0_linear_115_1603" x1="30" y1="1" x2="30" y2="31" gradientUnits="userSpaceOnUse">
<stop stop-color="#66FFED"/>
<stop offset="1" stop-color="#FFEEB2"/>
</linearGradient>
<linearGradient id="paint1_linear_115_1603" x1="12" y1="7" x2="12" y2="14" gradientUnits="userSpaceOnUse">
<stop stop-color="#FFF48F"/>
<stop offset="1" stop-color="#FFFEEA" stop-opacity="0"/>
</linearGradient>
<linearGradient id="paint2_linear_115_1603" x1="28.5" y1="5" x2="28.5" y2="8.70588" gradientUnits="userSpaceOnUse">
<stop stop-color="#FFF48F"/>
<stop offset="1" stop-color="#FFFEEA" stop-opacity="0"/>
</linearGradient>
<linearGradient id="paint3_linear_115_1603" x1="26.7" y1="11" x2="26.7" y2="16.7647" gradientUnits="userSpaceOnUse">
<stop stop-color="#FFF48F"/>
<stop offset="1" stop-color="#FFFEEA" stop-opacity="0"/>
</linearGradient>
<linearGradient id="paint4_linear_115_1603" x1="44.7" y1="5" x2="44.7" y2="28.3333" gradientUnits="userSpaceOnUse">
<stop stop-color="#FFC123"/>
<stop offset="1" stop-color="#F8832E"/>
</linearGradient>
<linearGradient id="paint5_linear_115_1603" x1="44.7" y1="7" x2="44.7" y2="26.3333" gradientUnits="userSpaceOnUse">
<stop stop-color="#FFBF24"/>
<stop offset="1" stop-color="#F4924B"/>
</linearGradient>
<linearGradient id="paint6_linear_115_1603" x1="44.7" y1="7" x2="44.7" y2="26.3333" gradientUnits="userSpaceOnUse">
<stop stop-color="#FFBF24"/>
<stop offset="1" stop-color="#F4924B"/>
</linearGradient>
<linearGradient id="paint7_linear_115_1603" x1="44.7" y1="5" x2="44.7" y2="28.3333" gradientUnits="userSpaceOnUse">
<stop stop-color="#FFC123"/>
<stop offset="1" stop-color="#F8832E"/>
</linearGradient>
<linearGradient id="paint8_linear_115_1603" x1="44.6249" y1="10.6666" x2="44.6249" y2="38.0086" gradientUnits="userSpaceOnUse">
<stop stop-color="#FF9D55" stop-opacity="0.6"/>
<stop offset="1" stop-color="#FD8A37" stop-opacity="0"/>
</linearGradient>
<linearGradient id="paint9_linear_115_1603" x1="41.1139" y1="7.87967" x2="48.0049" y2="34.1658" gradientUnits="userSpaceOnUse">
<stop stop-color="#FFBD3E" stop-opacity="0.49"/>
<stop offset="1" stop-color="white" stop-opacity="0"/>
</linearGradient>
</defs>
</svg>
